<?xml version="1.0" encoding="utf-8"?>
<!-- Generator: Adobe Illustrator 25.0.0, SVG Export Plug-In . SVG Version: 6.00 Build 0)  -->
<svg version="1.1" id="Слой_1" xmlns="http://www.w3.org/2000/svg" xmlns:xlink="http://www.w3.org/1999/xlink" x="0px" y="0px"
	 viewBox="0 0 27.18 32.52" style="enable-background:new 0 0 27.18 32.52;" xml:space="preserve">
<style type="text/css">
	.st0{fill:#6B6966;stroke:#6B6966;stroke-miterlimit:10;}
	.st1{fill:#6B6966;stroke:#6B6966;stroke-width:0.25;stroke-miterlimit:10;}
	.st2{fill:#FFFFFF;stroke:#6B6966;stroke-width:0.25;stroke-miterlimit:10;}
	.st3{fill:none;stroke:#979695;stroke-width:0.25;stroke-miterlimit:10;}
	.st4{fill:none;stroke:#979695;stroke-width:0.5;stroke-miterlimit:10;}
	.st5{fill:none;stroke:#7F7E7C;stroke-width:0.35;stroke-miterlimit:10;}
	.st6{fill:none;stroke:#7F7E7C;stroke-width:0.25;stroke-miterlimit:10;}
	.st7{fill:none;stroke:#7F7E7C;stroke-width:0.2;stroke-miterlimit:10;}
</style>
<path class="st0" d="M24.93,11.55c0.06,0.19,0.06,0.39,0.06,0.39c0,0.16-0.03,0.3-0.05,0.39l-5.42,17.79
	c-0.07,0.24-0.21,0.39-0.36,0.39L8.19,30.46c-0.15,0-0.29-0.15-0.36-0.39L2.28,12.24c-0.06-0.19-0.13-0.5,0-0.78
	c0.33-0.74,1.7-0.78,2.21-0.8c2.94-0.1,6.08-0.03,9.03,0.03c2.77,0.06,5.36,0.1,8.13,0.03C21.64,10.73,24.67,10.67,24.93,11.55z"/>
<path class="st1" d="M27,21"/>
<path class="st1" d="M26,7c0,0.24-0.44,1.12-0.93,1.33C23.33,9.1,18.91,9,13.5,9C8.32,9,3.82,9.05,1.93,8.33C1.29,8.09,1,7.27,1,7
	c0-0.27,0.32-0.52,0.91-0.75C3.77,5.52,8.26,5,13.5,5c5.18,0,9.62,0.5,11.52,1.22C25.65,6.46,26,6.72,26,7z"/>
<path class="st1" d="M17.24,6H9.76C9.34,6,9,5.66,9,5.24V2.76C9,2.34,9.34,2,9.76,2h7.47C17.66,2,18,2.34,18,2.76v2.47
	C18,5.66,17.66,6,17.24,6z"/>
<path class="st2" d="M17,5h-7c0,0,0,0,0-1V3.76C10,3.34,10.34,3,10.76,3h5.47C16.66,3,17,3.34,17,3.76v0.47C17,5,17,5,17,5z"/>
<path class="st3" d="M8.5,28.5"/>
<path class="st3" d="M5.5,15.5"/>
<path class="st4" d="M11.5,28.5"/>
<path class="st4" d="M9.5,15.5"/>
<path class="st4" d="M14.5,28.5"/>
<path class="st4" d="M14.5,15.5"/>
<path class="st4" d="M16.5,28.5"/>
<path class="st4" d="M18.5,15.5"/>
<path class="st4" d="M18.5,28.5"/>
<path class="st4" d="M22.5,16.5"/>
<path class="st5" d="M9,29"/>
<path class="st5" d="M4.5,14.5"/>
<path class="st5" d="M18,29"/>
<path class="st5" d="M23,14"/>
<path class="st6" d="M11.56,29.14"/>
<path class="st6" d="M6.56,14.14"/>
<path class="st6" d="M16.56,29.14"/>
<path class="st6" d="M21.56,14.14"/>
<path class="st6" d="M11,29"/>
<path class="st6" d="M9,14"/>
<path class="st6" d="M16,29"/>
<path class="st6" d="M19,14"/>
<path class="st7" d="M13.89,28.88"/>
<path class="st7" d="M14,14"/>
<path class="st6" d="M14.79,28.79"/>
<path class="st6" d="M16,14"/>
</svg>
