<?xml version="1.0" encoding="utf-8"?>
<!-- Generator: Adobe Illustrator 25.0.0, SVG Export Plug-In . SVG Version: 6.00 Build 0)  -->
<svg version="1.1" id="Слой_1" xmlns="http://www.w3.org/2000/svg" xmlns:xlink="http://www.w3.org/1999/xlink" x="0px" y="0px"
	 viewBox="0 0 299 287" style="enable-background:new 0 0 299 287;" xml:space="preserve">
<style type="text/css">
	.st0{fill:#666666;}
	.st1{fill:none;stroke:#666666;stroke-width:12;stroke-miterlimit:10;}
</style>
<g>
	<path class="st0" d="M149.5,13c36.56,0,70.91,13.64,96.71,38.41C271.87,76.04,286,108.74,286,143.5s-14.13,67.46-39.79,92.09
		C220.41,260.36,186.06,274,149.5,274s-70.91-13.64-96.71-38.41C27.13,210.96,13,178.26,13,143.5s14.13-67.46,39.79-92.09
		C78.59,26.64,112.94,13,149.5,13 M149.5,0C66.93,0,0,64.25,0,143.5S66.93,287,149.5,287S299,222.75,299,143.5S232.07,0,149.5,0
		L149.5,0z"/>
</g>
<g>
	<line class="st1" x1="149.5" y1="152" x2="149.5" y2="40.5"/>
</g>
<line class="st1" x1="242" y1="195" x2="146.21" y2="146.65"/>
</svg>
