<?xml version="1.0" encoding="utf-8"?>
<!-- Generator: Adobe Illustrator 25.0.0, SVG Export Plug-In . SVG Version: 6.00 Build 0)  -->
<svg version="1.1" id="Слой_1" xmlns="http://www.w3.org/2000/svg" xmlns:xlink="http://www.w3.org/1999/xlink" x="0px" y="0px"
	 viewBox="0 0 16.44 17.01" style="enable-background:new 0 0 16.44 17.01;" xml:space="preserve">
<style type="text/css">
	.st0{fill:#7F7E7C;}
</style>
<g>
	<path class="st0" d="M11.02,4.51c0.65,0.53,1.32,1.05,1.99,1.56c0.24,0.18,0.48,0.37,0.72,0.56l0.4-0.46
		c-0.82-0.6-1.62-1.21-2.41-1.85C11.21,3.91,10.7,3.5,10.19,3.1C10.05,3,9.92,2.89,9.79,2.78L9.43,3.2
		C9.99,3.58,10.49,4.08,11.02,4.51z"/>
	<path class="st0" d="M10.61,5.98c0.73,0.57,1.47,1.13,2.21,1.7l0.35-0.4c-0.17-0.13-0.34-0.26-0.5-0.39
		c-0.69-0.52-1.38-1.05-2.06-1.6c-0.31-0.25-0.61-0.5-0.91-0.75C9.42,4.31,9.17,4.04,8.88,3.84L8.51,4.27
		C9.25,4.78,9.93,5.44,10.61,5.98z"/>
	<path class="st0" d="M10.17,6.73C9.7,6.36,9.24,5.99,8.77,5.62C8.5,5.41,8.23,5.15,7.94,4.93L2.3,11.48
		c0.43,0.03,1.09,0.66,1.48,0.9l1.67,1.44c0.48,0.43,0.89,0.81,1,1.24l5.81-6.74C11.56,7.8,10.86,7.27,10.17,6.73z"/>
	<path class="st0" d="M10.9,2.57c0.51,0.4,1.02,0.81,1.53,1.22c0.74,0.59,1.49,1.17,2.25,1.73l0.65-0.75
		c0.59-0.69,0.52-1.72-0.17-2.32L13.49,1c-0.69-0.59-1.72-0.52-2.31,0.17l-0.83,0.96C10.53,2.28,10.72,2.42,10.9,2.57z"/>
	<path class="st0" d="M6.31,15.17c-1.66,0.48-3.76,1.28-5.83,1.76c-0.19,0.04-0.36-0.13-0.29-0.3c0.66-1.64,1.33-3.28,1.99-4.93"/>
</g>
</svg>
