<?xml version="1.0" encoding="utf-8"?>
<!-- Generator: Adobe Illustrator 25.0.0, SVG Export Plug-In . SVG Version: 6.00 Build 0)  -->
<svg version="1.1" id="Слой_1" xmlns="http://www.w3.org/2000/svg" xmlns:xlink="http://www.w3.org/1999/xlink" x="0px" y="0px"
	 viewBox="0 0 38.05 48.34" style="enable-background:new 0 0 38.05 48.34;" xml:space="preserve">
<style type="text/css">
	.st0{fill:none;stroke:#6B6966;stroke-width:2;stroke-miterlimit:10;}
	.st1{fill:#6B6966;stroke:#6B6966;stroke-miterlimit:10;}
	.st2{fill:#FFFFFF;}
	.st3{fill:none;stroke:#6B6966;stroke-width:1.5;stroke-miterlimit:10;}
	.st4{fill:none;stroke:#979695;stroke-width:1.5;stroke-miterlimit:10;}
	.st5{fill:none;stroke:#7F7E7C;stroke-width:2;stroke-miterlimit:10;}
	.st6{fill:none;stroke:#979695;stroke-width:2;stroke-miterlimit:10;}
</style>
<g>
	<rect x="3.43" y="9.24" class="st0" width="31.18" height="36.85"/>
	<g>
		<g>
			<path class="st1" d="M8.16,16.07h22.1c0.35-0.75,0.62-1.79,0.06-2.79c-0.42-0.76-0.93-0.79-2.12-1.77
				c-2.34-1.92-3.31-4.18-3.59-4.83c-0.33-0.76-0.29-0.93-0.65-1.53c-0.51-0.85-1.2-2.01-2.79-2.51c-0.38-0.12-1.48-0.41-3.09-0.09"
				/>
			<path class="st1" d="M30.45,16.07H8.35c-0.35-0.75-0.62-1.79-0.06-2.79c0.42-0.76,0.93-0.79,2.12-1.77
				C12.75,9.6,13.72,7.34,14,6.69c0.33-0.76,0.29-0.93,0.65-1.53c0.51-0.85,1.2-2.01,2.79-2.51c0.38-0.12,1.48-0.41,3.09-0.09"/>
		</g>
		<path class="st2" d="M22.14,6.17c0,0.61-0.28,1.15-0.74,1.55c-0.24,0.21-3.19,0.29-3.4,0.14c-0.57-0.4-0.93-1.01-0.93-1.69
			c0-1.21,1.14-2.19,2.54-2.19S22.14,4.96,22.14,6.17z"/>
		<path class="st2" d="M19.61,9.12"/>
		<polyline class="st2" points="19.74,8.77 21.4,7.72 18,7.86 		"/>
	</g>
	<line class="st3" x1="7.97" y1="25.13" x2="30.64" y2="25.13"/>
	<line class="st4" x1="7.97" y1="21.95" x2="19.7" y2="21.95"/>
	<line class="st5" x1="7.95" y1="28.67" x2="23.01" y2="28.67"/>
	<line class="st3" x1="7.94" y1="31.77" x2="18.8" y2="31.77"/>
	<line class="st6" x1="7.94" y1="35.17" x2="30.42" y2="35.28"/>
</g>
</svg>
