<?xml version="1.0" encoding="utf-8"?>
<!-- Generator: Adobe Illustrator 25.0.0, SVG Export Plug-In . SVG Version: 6.00 Build 0)  -->
<svg version="1.1" id="Слой_1" xmlns="http://www.w3.org/2000/svg" xmlns:xlink="http://www.w3.org/1999/xlink" x="0px" y="0px"
	 viewBox="0 0 99.21 99.21" style="enable-background:new 0 0 99.21 99.21;" xml:space="preserve">
<style type="text/css">
	.st0{fill-rule:evenodd;clip-rule:evenodd;fill:#808080;}
	.st1{fill-rule:evenodd;clip-rule:evenodd;fill:#CCCCCC;}
	.st2{fill-rule:evenodd;clip-rule:evenodd;fill:none;}
</style>
<rect y="0" class="st0" width="99.21" height="99.21"/>
<path class="st1" d="M192.13,108.21c0.31-1.66,0.47-3.37,0.47-5.11"/>
<path class="st1" d="M30.08,62.26c-4.03-4.84-6.47-11.2-6.47-18.16c0-15.19,11.64-27.5,26-27.5s26,12.31,26,27.5
	s-11.64,27.5-26,27.5C41.83,71.61,34.84,67.99,30.08,62.26"/>
<path class="st0" d="M35.61,57.61h29l0,0C56.63,69.25,43.58,69.25,35.61,57.61L35.61,57.61z"/>
<path class="st1" d="M28.44,100.74"/>
<path class="st1" d="M90.61,99.21c0-2.73,0-4.04,0-7.22c0-8.43-5.86-15.93-15-20.79c-6.73-3.58-14.75,5.29-24,5.29
	c-10.91,0-21.28-8.03-28.43-3.24S11.61,84.67,11.61,91.99c0,2.87,0,4.47,0,7.22"/>
<path class="st2" d="M15.62,99.61"/>
</svg>
