<?xml version="1.0" encoding="utf-8"?>
<!-- Generator: Adobe Illustrator 25.0.0, SVG Export Plug-In . SVG Version: 6.00 Build 0)  -->
<svg version="1.1" id="Слой_1" xmlns="http://www.w3.org/2000/svg" xmlns:xlink="http://www.w3.org/1999/xlink" x="0px" y="0px"
	 viewBox="0 0 99.21 99.21" style="enable-background:new 0 0 99.21 99.21;" xml:space="preserve">
<style type="text/css">
	.st0{fill:#666666;}
	.st1{fill:none;stroke:#666666;stroke-width:13;stroke-miterlimit:10;}
</style>
<g>
	<g>
		<g>
			<path class="st0" d="M36.43,13c12.92,0,23.43,10.45,23.43,23.29S49.35,59.58,36.43,59.58S13,49.13,13,36.29S23.51,13,36.43,13
				 M36.43,0C16.31,0,0,16.25,0,36.29s16.31,36.29,36.43,36.29s36.43-16.25,36.43-36.29S56.56,0,36.43,0L36.43,0z"/>
		</g>
		<path class="st1" d="M60.54,60.12"/>
	</g>
	<path class="st1" d="M92.54,90.54L58.5,59.19c-0.58-0.53-1.48-0.5-2.01,0.08h0c-0.53,0.58-0.5,1.47,0.08,2l34.04,31.35
		c0.58,0.53,1.48,0.5,2.01-0.08l0,0C93.16,91.97,93.12,91.07,92.54,90.54z"/>
</g>
</svg>
